<svg width="165" height="214" viewBox="0 0 165 214" fill="none" xmlns="http://www.w3.org/2000/svg">
<path fill-rule="evenodd" clip-rule="evenodd" d="M40.6116 196.74C53.3775 206.787 77.1342 214.189 94.508 213.585V157.196V156.97V157.913L83.5549 172.303C79.7403 177.478 76.2656 184.012 71.9977 181.255C69.316 179.555 70.5247 175.779 71.1667 172.681C71.771 169.66 72.3753 166.563 72.9797 163.503L81.9686 117.992C82.4597 115.499 83.5927 111.382 83.5549 109.003C66.9366 109.04 50.356 108.927 33.7377 109.003C29.4319 109.003 26.2971 108.473 25.3529 104.81C24.1821 100.316 27.5812 98.4652 29.3186 96.4256C35.0973 89.6272 43.5198 80.9781 49.865 73.7642C50.8847 72.5933 51.9045 71.7246 52.8865 70.5539C53.9062 69.3452 54.8883 68.5143 55.908 67.3435C57.0789 65.9838 57.381 65.455 58.854 64.0576L64.746 57.5235C65.7658 56.3527 66.7855 55.4462 67.7675 54.3131L76.6055 44.4932C77.663 43.3224 78.645 42.4159 79.627 41.2828L94.508 24.9666H94.4325C86.161 23.7202 68.7495 28.0637 61.8756 30.5942C52.4333 34.0689 43.7086 39.0544 37.0991 44.2666C4.08894 70.1383 -9.13022 113.233 6.61947 153.835C10.2453 163.163 15.4952 171.586 20.7073 178.196C23.5399 181.746 26.9392 185.334 29.9229 188.053C33.3221 191.075 36.4947 194.248 40.6116 196.778V196.74Z" fill="#05445E"/>
<path fill-rule="evenodd" clip-rule="evenodd" d="M95 157.71L109.881 141.357C110.863 140.224 111.808 139.317 112.903 138.146L121.741 128.327C122.722 127.194 123.742 126.287 124.762 125.116L130.654 118.583C132.126 117.185 132.429 116.694 133.599 115.296C134.62 114.126 135.602 113.294 136.621 112.086C137.604 110.915 138.585 110.047 139.643 108.875C145.988 101.661 154.411 93.0126 160.189 86.2142C161.927 84.1746 165.288 82.324 164.155 77.8294C163.211 74.2036 160.038 73.6371 155.77 73.6371C139.152 73.7127 122.571 73.5993 105.953 73.6371C105.916 71.2954 107.086 67.1408 107.54 64.6481L116.528 19.1364C117.133 16.0771 117.736 12.9801 118.341 9.95851C118.946 6.89922 120.192 3.12231 117.511 1.38494C113.243 -1.33443 109.768 5.19961 105.953 10.3362L95 24.7262V157.674V157.71Z" fill="#05445E"/>
</svg>
