<svg width="576" height="244" viewBox="0 0 576 244" fill="none" xmlns="http://www.w3.org/2000/svg">
<path fill-rule="evenodd" clip-rule="evenodd" d="M46.9409 191.901C58.781 201.219 80.8147 208.084 96.9284 207.524V155.224V155.015V155.89L86.7697 169.236C83.2318 174.035 80.0091 180.096 76.0507 177.539C73.5635 175.962 74.6845 172.46 75.28 169.586C75.8405 166.785 76.4009 163.912 76.9615 161.074L85.2985 118.864C85.7539 116.551 86.8048 112.734 86.7697 110.527C71.3567 110.561 55.9786 110.457 40.5655 110.527C36.5721 110.527 33.6647 110.036 32.7889 106.638C31.703 102.47 34.8556 100.753 36.467 98.8617C41.8266 92.5564 49.6382 84.5346 55.5233 77.8439C56.469 76.7579 57.4148 75.9522 58.3256 74.8664C59.2714 73.7454 60.1822 72.9747 61.128 71.8888C62.214 70.6278 62.4941 70.1373 63.8603 68.8412L69.325 62.7811C70.2708 61.6952 71.2165 60.8545 72.1273 59.8035L80.3243 50.6958C81.3052 49.6099 82.216 48.7692 83.1266 47.7182L96.9284 32.5854H96.8584C89.1868 31.4294 73.0381 35.4579 66.6627 37.8049C57.9052 41.0275 49.8134 45.6515 43.6832 50.4857C13.0672 74.481 0.806746 114.45 15.4142 152.107C18.777 160.759 23.6462 168.571 28.4803 174.702C31.1074 177.994 34.2601 181.322 37.0275 183.844C40.1802 186.647 43.1227 189.589 46.9409 191.936V191.901Z" fill="white"/>
<path fill-rule="evenodd" clip-rule="evenodd" d="M97.3846 155.702L111.186 140.534C112.097 139.483 112.973 138.642 113.989 137.556L122.186 128.449C123.096 127.398 124.042 126.558 124.988 125.471L130.452 119.412C131.818 118.115 132.099 117.66 133.185 116.363C134.131 115.278 135.042 114.507 135.987 113.386C136.898 112.3 137.809 111.495 138.79 110.408C144.675 103.718 152.487 95.6961 157.846 89.3907C159.457 87.4991 162.575 85.7827 161.524 81.6141C160.648 78.2513 157.706 77.7259 153.747 77.7259C138.334 77.7959 122.956 77.6908 107.543 77.7259C107.509 75.554 108.594 71.7007 109.015 69.3888L117.352 27.1779C117.912 24.3405 118.472 21.4681 119.033 18.6656C119.594 15.8282 120.749 12.3253 118.263 10.7139C114.304 8.19174 111.082 14.2519 107.543 19.0159L97.3846 32.3623V155.667V155.702Z" fill="white"/>
<path d="M180.286 139.299V52.657H232.237V61.9642H190.778V91.2398H228.345V100.547H190.778V139.299H180.286ZM254.742 52.657V139.299H244.25V52.657H254.742ZM296.559 139.299H269.822V52.657H297.744C306.148 52.657 313.34 54.3915 319.319 57.8606C325.298 61.3014 329.881 66.2512 333.069 72.7099C336.255 79.1403 337.849 86.8399 337.849 95.8088C337.849 104.834 336.241 112.604 333.026 119.12C329.811 125.606 325.13 130.598 318.981 134.095C312.832 137.564 305.358 139.299 296.559 139.299ZM280.314 129.992H295.882C303.046 129.992 308.982 128.609 313.693 125.846C318.403 123.082 321.914 119.147 324.227 114.042C326.539 108.937 327.696 102.859 327.696 95.8088C327.696 88.8143 326.553 82.7927 324.269 77.7442C321.985 72.6676 318.572 68.7755 314.031 66.0678C309.49 63.3321 303.836 61.9642 297.066 61.9642H280.314V129.992ZM374.367 165.021C369.544 165.021 365.398 164.401 361.929 163.16C358.46 161.946 355.569 160.339 353.257 158.336C350.972 156.362 349.153 154.247 347.8 151.99L355.753 146.406C356.656 147.591 357.798 148.945 359.179 150.468C360.561 152.019 362.451 153.358 364.849 154.486C367.274 155.643 370.447 156.221 374.367 156.221C379.613 156.221 383.942 154.952 387.355 152.414C390.768 149.875 392.474 145.898 392.474 140.484V127.284H391.628C390.895 128.468 389.851 129.936 388.498 131.684C387.172 133.405 385.254 134.941 382.744 136.296C380.262 137.621 376.906 138.284 372.675 138.284C367.429 138.284 362.719 137.043 358.545 134.561C354.399 132.078 351.113 128.468 348.688 123.731C346.291 118.993 345.092 113.239 345.092 106.47C345.092 99.8137 346.262 94.0182 348.603 89.0821C350.945 84.1183 354.201 80.2826 358.376 77.575C362.55 74.8392 367.373 73.4713 372.845 73.4713C377.075 73.4713 380.432 74.1765 382.913 75.5866C385.424 76.9686 387.341 78.548 388.667 80.3249C390.021 82.0735 391.064 83.5119 391.797 84.6401H392.813V74.3174H402.459V141.16C402.459 146.745 401.189 151.285 398.651 154.783C396.14 158.309 392.757 160.889 388.498 162.525C384.267 164.188 379.557 165.021 374.367 165.021ZM374.029 129.315C378.034 129.315 381.419 128.398 384.183 126.565C386.946 124.731 389.047 122.095 390.486 118.654C391.924 115.213 392.644 111.095 392.644 106.301C392.644 101.619 391.938 97.4864 390.529 93.9051C389.118 90.3231 387.031 87.5169 384.267 85.4862C381.503 83.4555 378.09 82.4402 374.029 82.4402C369.798 82.4402 366.273 83.5119 363.453 85.6553C360.661 87.7989 358.559 90.6757 357.149 94.2861C355.767 97.8961 355.076 101.901 355.076 106.301C355.076 110.813 355.781 114.804 357.191 118.273C358.63 121.714 360.745 124.422 363.537 126.396C366.358 128.341 369.855 129.315 374.029 129.315ZM433.9 140.822C429.783 140.822 426.046 140.046 422.689 138.495C419.333 136.916 416.668 134.646 414.693 131.684C412.719 128.695 411.732 125.085 411.732 120.854C411.732 117.131 412.465 114.113 413.932 111.8C415.398 109.459 417.358 107.626 419.813 106.301C422.266 104.975 424.973 103.988 427.934 103.339C430.924 102.662 433.928 102.126 436.946 101.731C440.894 101.224 444.096 100.843 446.55 100.589C449.031 100.308 450.836 99.8415 451.964 99.1936C453.121 98.5448 453.699 97.416 453.699 95.8088V95.4706C453.699 91.2961 452.557 88.0527 450.272 85.74C448.016 83.4272 444.59 82.2709 439.992 82.2709C435.226 82.2709 431.489 83.3145 428.781 85.4016C426.073 87.4886 424.17 89.7167 423.07 92.0859L413.594 88.7014C415.285 84.7529 417.542 81.6787 420.362 79.4788C423.21 77.2507 426.313 75.6994 429.669 74.8252C433.054 73.9226 436.382 73.4713 439.653 73.4713C441.74 73.4713 444.138 73.7252 446.845 74.2328C449.581 74.7124 452.218 75.7135 454.757 77.2366C457.323 78.7596 459.452 81.0582 461.145 84.1324C462.837 87.2066 463.683 91.3244 463.683 96.4854V139.299H453.699V130.499H453.191C452.515 131.91 451.386 133.419 449.807 135.026C448.227 136.634 446.126 138.002 443.503 139.13C440.88 140.258 437.679 140.822 433.9 140.822ZM435.423 131.853C439.372 131.853 442.7 131.077 445.407 129.526C448.143 127.975 450.202 125.973 451.583 123.519C452.994 121.065 453.699 118.485 453.699 115.777V106.639C453.276 107.147 452.345 107.612 450.907 108.035C449.497 108.429 447.861 108.783 445.999 109.093C444.166 109.375 442.375 109.629 440.626 109.854C438.906 110.051 437.51 110.221 436.438 110.362C433.844 110.7 431.418 111.251 429.162 112.012C426.933 112.745 425.129 113.859 423.747 115.354C422.393 116.821 421.716 118.823 421.716 121.362C421.716 124.831 422.999 127.454 425.565 129.23C428.161 130.979 431.446 131.853 435.423 131.853ZM504.21 74.3174V82.7786H470.534V74.3174H504.21ZM480.349 58.749H490.333V120.684C490.333 123.505 490.743 125.62 491.56 127.03C492.407 128.412 493.478 129.343 494.775 129.823C496.101 130.274 497.498 130.499 498.964 130.499C500.064 130.499 500.967 130.443 501.671 130.33C502.376 130.19 502.941 130.076 503.363 129.992L505.394 138.96C504.718 139.214 503.773 139.468 502.56 139.722C501.348 140.004 499.81 140.145 497.949 140.145C495.129 140.145 492.364 139.539 489.657 138.326C486.977 137.113 484.749 135.266 482.972 132.784C481.223 130.302 480.349 127.171 480.349 123.392V58.749ZM539.818 140.653C533.558 140.653 528.156 139.271 523.616 136.507C519.103 133.714 515.62 129.823 513.166 124.831C510.74 119.81 509.528 113.972 509.528 107.315C509.528 100.66 510.74 94.793 513.166 89.7167C515.62 84.6118 519.032 80.6351 523.404 77.7866C527.804 74.9098 532.937 73.4713 538.804 73.4713C542.187 73.4713 545.53 74.0354 548.83 75.1635C552.13 76.2918 555.133 78.125 557.841 80.6634C560.548 83.1735 562.706 86.5015 564.314 90.6474C565.921 94.793 566.725 99.898 566.725 105.962V110.192H516.635V101.563H556.572C556.572 97.8961 555.839 94.6244 554.372 91.7474C552.933 88.8706 550.875 86.6003 548.195 84.9362C545.543 83.2722 542.414 82.4402 538.804 82.4402C534.827 82.4402 531.385 83.4272 528.481 85.4016C525.604 87.3476 523.39 89.886 521.839 93.0166C520.287 96.1471 519.512 99.5032 519.512 103.085V108.839C519.512 113.747 520.358 117.906 522.05 121.319C523.77 124.704 526.154 127.284 529.2 129.061C532.246 130.81 535.786 131.684 539.818 131.684C542.441 131.684 544.81 131.318 546.926 130.584C549.069 129.823 550.916 128.695 552.468 127.2C554.019 125.677 555.218 123.787 556.064 121.53L565.709 124.238C564.695 127.51 562.988 130.387 560.591 132.868C558.193 135.322 555.232 137.24 551.706 138.622C548.181 139.976 544.218 140.653 539.818 140.653Z" fill="white"/>
<path d="M150.506 212.548H155.64V228.318C155.64 230.088 155.217 231.638 154.371 232.966C153.533 234.294 152.36 235.329 150.85 236.072C149.34 236.807 147.581 237.175 145.573 237.175C143.558 237.175 141.795 236.807 140.285 236.072C138.776 235.329 137.602 234.294 136.764 232.966C135.926 231.638 135.507 230.088 135.507 228.318V212.548H140.641V227.879C140.641 228.804 140.843 229.626 141.246 230.345C141.657 231.065 142.234 231.63 142.977 232.041C143.72 232.452 144.585 232.657 145.573 232.657C146.569 232.657 147.435 232.452 148.17 232.041C148.913 231.63 149.486 231.065 149.889 230.345C150.3 229.626 150.506 228.804 150.506 227.879V212.548ZM164.82 226.302V236.831H159.769V218.619H164.583V221.832H164.796C165.2 220.773 165.875 219.935 166.824 219.318C167.773 218.694 168.923 218.382 170.274 218.382C171.539 218.382 172.642 218.658 173.582 219.212C174.523 219.765 175.254 220.555 175.776 221.583C176.298 222.603 176.559 223.82 176.559 225.235V236.831H171.507V226.136C171.515 225.021 171.231 224.152 170.654 223.527C170.077 222.895 169.282 222.579 168.271 222.579C167.591 222.579 166.99 222.725 166.468 223.018C165.954 223.31 165.551 223.737 165.259 224.298C164.974 224.852 164.828 225.519 164.82 226.302ZM185.591 212.548V236.831H180.539V212.548H185.591ZM197.865 237.187C196.024 237.187 194.431 236.795 193.087 236.013C191.751 235.222 190.72 234.124 189.992 232.717C189.265 231.302 188.902 229.661 188.902 227.796C188.902 225.915 189.265 224.271 189.992 222.864C190.72 221.449 191.751 220.35 193.087 219.567C194.431 218.777 196.024 218.382 197.865 218.382C199.707 218.382 201.296 218.777 202.632 219.567C203.976 220.35 205.011 221.449 205.738 222.864C206.466 224.271 206.829 225.915 206.829 227.796C206.829 229.661 206.466 231.302 205.738 232.717C205.011 234.124 203.976 235.222 202.632 236.013C201.296 236.795 199.707 237.187 197.865 237.187ZM197.889 233.274C198.727 233.274 199.427 233.037 199.988 232.562C200.549 232.08 200.972 231.424 201.256 230.594C201.549 229.764 201.695 228.82 201.695 227.76C201.695 226.701 201.549 225.757 201.256 224.927C200.972 224.097 200.549 223.441 199.988 222.958C199.427 222.476 198.727 222.235 197.889 222.235C197.043 222.235 196.332 222.476 195.755 222.958C195.186 223.441 194.755 224.097 194.462 224.927C194.178 225.757 194.036 226.701 194.036 227.76C194.036 228.82 194.178 229.764 194.462 230.594C194.755 231.424 195.186 232.08 195.755 232.562C196.332 233.037 197.043 233.274 197.889 233.274ZM218.342 237.187C216.477 237.187 214.872 236.791 213.528 236.001C212.192 235.203 211.165 234.096 210.446 232.681C209.734 231.266 209.378 229.638 209.378 227.796C209.378 225.93 209.738 224.294 210.457 222.887C211.185 221.472 212.216 220.37 213.552 219.579C214.888 218.781 216.477 218.382 218.319 218.382C219.907 218.382 221.299 218.67 222.492 219.247C223.686 219.824 224.63 220.634 225.326 221.678C226.022 222.721 226.405 223.946 226.476 225.353H221.71C221.575 224.444 221.22 223.713 220.642 223.16C220.073 222.599 219.326 222.318 218.402 222.318C217.619 222.318 216.935 222.532 216.35 222.958C215.773 223.377 215.323 223.99 214.999 224.796C214.674 225.602 214.512 226.579 214.512 227.725C214.512 228.887 214.671 229.875 214.987 230.689C215.311 231.503 215.765 232.124 216.35 232.551C216.935 232.977 217.619 233.191 218.402 233.191C218.979 233.191 219.496 233.072 219.955 232.835C220.421 232.598 220.805 232.254 221.105 231.804C221.413 231.345 221.615 230.796 221.71 230.155H226.476C226.397 231.547 226.018 232.772 225.338 233.831C224.666 234.882 223.737 235.705 222.551 236.297C221.366 236.89 219.963 237.187 218.342 237.187ZM234.287 231.59L234.299 225.531H235.034L240.867 218.619H246.665L238.828 227.772H237.63L234.287 231.59ZM229.71 236.831V212.548H234.761V236.831H229.71ZM241.093 236.831L235.733 228.899L239.101 225.33L247.009 236.831H241.093ZM256.966 236.831V212.548H273.044V216.781H262.1V222.567H271.977V226.8H262.1V236.831H256.966ZM286.94 229.077V218.619H291.991V236.831H287.142V233.523H286.952C286.541 234.59 285.857 235.448 284.901 236.096C283.952 236.744 282.794 237.068 281.427 237.068C280.21 237.068 279.138 236.791 278.214 236.238C277.289 235.685 276.566 234.898 276.044 233.879C275.53 232.859 275.269 231.638 275.261 230.215V218.619H280.312V229.314C280.32 230.389 280.609 231.238 281.178 231.863C281.747 232.487 282.51 232.8 283.466 232.8C284.075 232.8 284.644 232.661 285.174 232.385C285.703 232.1 286.13 231.681 286.454 231.128C286.786 230.574 286.948 229.891 286.94 229.077ZM301.083 212.548V236.831H296.032V212.548H301.083ZM310.18 212.548V236.831H305.129V212.548H310.18ZM322.049 236.831V212.548H331.629C333.471 212.548 335.04 212.9 336.336 213.603C337.633 214.299 338.621 215.267 339.3 216.508C339.988 217.741 340.332 219.164 340.332 220.777C340.332 222.389 339.984 223.812 339.289 225.045C338.593 226.278 337.585 227.239 336.265 227.926C334.953 228.614 333.364 228.958 331.499 228.958H325.392V224.844H330.669C331.657 224.844 332.471 224.674 333.111 224.334C333.759 223.986 334.241 223.508 334.558 222.899C334.882 222.283 335.044 221.575 335.044 220.777C335.044 219.97 334.882 219.267 334.558 218.666C334.241 218.058 333.759 217.587 333.111 217.255C332.463 216.915 331.641 216.745 330.645 216.745H327.183V236.831H322.049ZM351.507 237.187C349.665 237.187 348.073 236.795 346.729 236.013C345.393 235.222 344.361 234.124 343.634 232.717C342.907 231.302 342.543 229.661 342.543 227.796C342.543 225.915 342.907 224.271 343.634 222.864C344.361 221.449 345.393 220.35 346.729 219.567C348.073 218.777 349.665 218.382 351.507 218.382C353.349 218.382 354.938 218.777 356.274 219.567C357.617 220.35 358.653 221.449 359.38 222.864C360.107 224.271 360.471 225.915 360.471 227.796C360.471 229.661 360.107 231.302 359.38 232.717C358.653 234.124 357.617 235.222 356.274 236.013C354.938 236.795 353.349 237.187 351.507 237.187ZM351.531 233.274C352.369 233.274 353.068 233.037 353.63 232.562C354.191 232.08 354.614 231.424 354.898 230.594C355.191 229.764 355.337 228.82 355.337 227.76C355.337 226.701 355.191 225.757 354.898 224.927C354.614 224.097 354.191 223.441 353.63 222.958C353.068 222.476 352.369 222.235 351.531 222.235C350.685 222.235 349.974 222.476 349.397 222.958C348.827 223.441 348.397 224.097 348.104 224.927C347.82 225.757 347.677 226.701 347.677 227.76C347.677 228.82 347.82 229.764 348.104 230.594C348.397 231.424 348.827 232.08 349.397 232.562C349.974 233.037 350.685 233.274 351.531 233.274ZM373.442 218.619V222.413H362.475V218.619H373.442ZM364.965 214.255H370.016V231.234C370.016 231.701 370.087 232.064 370.229 232.325C370.371 232.578 370.569 232.756 370.822 232.859C371.083 232.962 371.383 233.013 371.723 233.013C371.96 233.013 372.197 232.993 372.435 232.954C372.672 232.906 372.853 232.871 372.98 232.847L373.774 236.606C373.521 236.685 373.166 236.776 372.707 236.878C372.249 236.989 371.692 237.056 371.035 237.08C369.818 237.127 368.751 236.965 367.834 236.594C366.925 236.222 366.218 235.645 365.712 234.863C365.206 234.08 364.957 233.092 364.965 231.898V214.255ZM384.837 237.187C382.963 237.187 381.351 236.807 379.999 236.048C378.655 235.282 377.62 234.199 376.893 232.8C376.166 231.393 375.802 229.729 375.802 227.808C375.802 225.934 376.166 224.29 376.893 222.875C377.62 221.46 378.644 220.358 379.964 219.567C381.292 218.777 382.849 218.382 384.635 218.382C385.837 218.382 386.955 218.575 387.991 218.963C389.034 219.342 389.943 219.915 390.718 220.682C391.5 221.449 392.109 222.413 392.544 223.575C392.979 224.729 393.196 226.081 393.196 227.63V229.017H377.818V225.887H388.441C388.441 225.16 388.283 224.516 387.967 223.954C387.651 223.393 387.212 222.954 386.651 222.638C386.098 222.314 385.453 222.152 384.718 222.152C383.952 222.152 383.272 222.33 382.679 222.686C382.094 223.033 381.636 223.504 381.304 224.097C380.972 224.682 380.802 225.334 380.794 226.053V229.029C380.794 229.93 380.96 230.709 381.292 231.365C381.632 232.021 382.11 232.527 382.726 232.883C383.343 233.238 384.074 233.416 384.92 233.416C385.481 233.416 385.995 233.337 386.461 233.179C386.928 233.021 387.327 232.784 387.659 232.468C387.991 232.151 388.244 231.764 388.418 231.306L393.089 231.614C392.852 232.736 392.366 233.717 391.631 234.554C390.904 235.384 389.963 236.033 388.809 236.499C387.663 236.957 386.339 237.187 384.837 237.187ZM401.543 226.302V236.831H396.492V218.619H401.306V221.832H401.52C401.923 220.773 402.598 219.935 403.547 219.318C404.496 218.694 405.646 218.382 406.997 218.382C408.262 218.382 409.365 218.658 410.305 219.212C411.246 219.765 411.977 220.555 412.499 221.583C413.021 222.603 413.282 223.82 413.282 225.235V236.831H408.231V226.136C408.238 225.021 407.954 224.152 407.377 223.527C406.8 222.895 406.005 222.579 404.994 222.579C404.314 222.579 403.713 222.725 403.191 223.018C402.678 223.31 402.274 223.737 401.982 224.298C401.697 224.852 401.551 225.519 401.543 226.302ZM426.95 218.619V222.413H415.982V218.619H426.95ZM418.472 214.255H423.523V231.234C423.523 231.701 423.594 232.064 423.736 232.325C423.879 232.578 424.076 232.756 424.329 232.859C424.59 232.962 424.891 233.013 425.23 233.013C425.468 233.013 425.705 232.993 425.942 232.954C426.179 232.906 426.361 232.871 426.487 232.847L427.282 236.606C427.029 236.685 426.673 236.776 426.215 236.878C425.756 236.989 425.199 237.056 424.543 237.08C423.325 237.127 422.258 236.965 421.341 236.594C420.432 236.222 419.725 235.645 419.219 234.863C418.713 234.08 418.464 233.092 418.472 231.898V214.255ZM430.24 236.831V218.619H435.291V236.831H430.24ZM432.777 216.271C432.026 216.271 431.382 216.022 430.845 215.524C430.315 215.018 430.05 214.413 430.05 213.71C430.05 213.014 430.315 212.418 430.845 211.92C431.382 211.414 432.026 211.161 432.777 211.161C433.528 211.161 434.169 211.414 434.698 211.92C435.236 212.418 435.504 213.014 435.504 213.71C435.504 214.413 435.236 215.018 434.698 215.524C434.169 216.022 433.528 216.271 432.777 216.271ZM444.53 237.175C443.368 237.175 442.333 236.973 441.424 236.57C440.515 236.159 439.796 235.554 439.266 234.756C438.744 233.95 438.483 232.946 438.483 231.744C438.483 230.733 438.669 229.883 439.041 229.195C439.412 228.507 439.918 227.954 440.558 227.535C441.199 227.116 441.926 226.8 442.74 226.587C443.562 226.373 444.424 226.223 445.325 226.136C446.384 226.025 447.238 225.923 447.886 225.828C448.534 225.725 449.004 225.575 449.297 225.377C449.589 225.18 449.736 224.887 449.736 224.5V224.429C449.736 223.678 449.499 223.097 449.024 222.686C448.558 222.275 447.894 222.069 447.032 222.069C446.123 222.069 445.4 222.271 444.862 222.674C444.325 223.069 443.969 223.567 443.795 224.168L439.124 223.788C439.361 222.682 439.827 221.725 440.523 220.919C441.218 220.105 442.116 219.48 443.214 219.046C444.321 218.603 445.602 218.382 447.056 218.382C448.068 218.382 449.036 218.5 449.961 218.737C450.894 218.974 451.72 219.342 452.439 219.84C453.166 220.338 453.739 220.978 454.158 221.761C454.577 222.535 454.787 223.464 454.787 224.547V236.831H449.997V234.305H449.854C449.562 234.875 449.17 235.376 448.68 235.811C448.19 236.238 447.601 236.574 446.914 236.819C446.226 237.056 445.432 237.175 444.53 237.175ZM445.977 233.689C446.72 233.689 447.376 233.543 447.945 233.25C448.514 232.95 448.961 232.547 449.285 232.041C449.609 231.535 449.771 230.962 449.771 230.321V228.389C449.613 228.492 449.396 228.586 449.119 228.673C448.85 228.752 448.546 228.828 448.206 228.899C447.866 228.962 447.526 229.021 447.186 229.077C446.847 229.124 446.538 229.167 446.262 229.207C445.669 229.294 445.151 229.432 444.708 229.622C444.266 229.812 443.922 230.069 443.677 230.393C443.432 230.709 443.309 231.104 443.309 231.578C443.309 232.266 443.558 232.792 444.056 233.155C444.562 233.511 445.202 233.689 445.977 233.689ZM463.756 212.548V236.831H458.705V212.548H463.756Z" fill="white"/>
</svg>
