<svg width="40" height="51" viewBox="0 0 40 51" fill="none" xmlns="http://www.w3.org/2000/svg">
<path fill-rule="evenodd" clip-rule="evenodd" d="M10.5804 43.063C13.2491 45.1634 18.2154 46.7107 21.8474 46.5845V34.7962V34.749V34.9462L19.5577 37.9545C18.7602 39.0362 18.0339 40.4022 17.1416 39.8258C16.581 39.4705 16.8337 38.681 16.9679 38.0334C17.0943 37.4019 17.2206 36.7545 17.3469 36.1148L19.2261 26.6007C19.3287 26.0795 19.5656 25.219 19.5577 24.7216C16.0836 24.7293 12.6175 24.7057 9.14338 24.7216C8.24327 24.7216 7.58793 24.6109 7.39054 23.845C7.14579 22.9055 7.85638 22.5186 8.21958 22.0922C9.42762 20.671 11.1883 18.8629 12.5148 17.3549C12.728 17.1101 12.9412 16.9285 13.1465 16.6837C13.3596 16.4311 13.5649 16.2574 13.7781 16.0126C14.0229 15.7284 14.086 15.6178 14.394 15.3257L15.6257 13.9598C15.8389 13.715 16.052 13.5255 16.2573 13.2886L18.1049 11.2358C18.326 10.991 18.5313 10.8015 18.7366 10.5646L21.8474 7.15373H21.8316C20.1025 6.89316 16.4626 7.80117 15.0256 8.33018C13.0517 9.05656 11.2278 10.0988 9.8461 11.1884C2.94531 16.5969 0.18184 25.6059 3.47432 34.0937C4.23229 36.0438 5.3298 37.8045 6.41938 39.1864C7.01155 39.9284 7.72216 40.6786 8.34591 41.247C9.05652 41.8787 9.71975 42.542 10.5804 43.071V43.063Z" fill="black"/>
<path fill-rule="evenodd" clip-rule="evenodd" d="M21.9503 34.9039L25.0612 31.4851C25.2665 31.2482 25.464 31.0588 25.6929 30.8139L27.5405 28.7612C27.7456 28.5243 27.9589 28.3348 28.172 28.09L29.4037 26.7242C29.7116 26.4319 29.7749 26.3294 30.0195 26.0371C30.2328 25.7925 30.4382 25.6187 30.6513 25.3661C30.8566 25.1213 31.0618 24.9397 31.283 24.6949C32.6093 23.1868 34.3702 21.3787 35.5781 19.9575C35.9414 19.5312 36.6441 19.1443 36.4072 18.2047C36.2098 17.4467 35.5465 17.3283 34.6543 17.3283C31.1802 17.3441 27.7141 17.3204 24.24 17.3283C24.2322 16.8388 24.4769 15.9703 24.5717 15.4491L26.4508 5.93491C26.5772 5.29537 26.7034 4.64793 26.8298 4.01627C26.9562 3.37673 27.2167 2.58716 26.6562 2.22396C25.7639 1.65548 25.0376 3.02142 24.24 4.09523L21.9503 7.10346V34.8961V34.9039Z" fill="black"/>
</svg>
